<?xml version="1.0" encoding="UTF-8" standalone="no"?><!DOCTYPE svg PUBLIC "-//W3C//DTD SVG 1.1//EN" "http://www.w3.org/Graphics/SVG/1.1/DTD/svg11.dtd"><!-- Generated by graphviz version 2.40.1 (20161225.0304)
 --><!-- Title: fsm Pages: 1 --><svg xmlns="http://www.w3.org/2000/svg" xmlns:xlink="http://www.w3.org/1999/xlink" width="767pt" height="754pt" viewBox="0.00 0.00 767.03 754.40">
<g id="graph0" class="graph" transform="scale(1 1) rotate(0) translate(4 750.4)">
<title>fsm</title>
<polygon fill="#ffffff" stroke="transparent" points="-4,4 -4,-750.4 763.033,-750.4 763.033,4 -4,4"/>
<!-- spawning -->
<g id="node1" class="node">
<title>spawning</title>
<ellipse fill="none" stroke="#000000" cx="525" cy="-728.4" rx="48.0955" ry="18"/>
<text text-anchor="middle" x="525" y="-724.2" font-family="Times,serif" font-size="14.00" fill="#000000">spawning</text>
</g>
<!-- movingToSource -->
<g id="node2" class="node">
<title>movingToSource</title>
<ellipse fill="none" stroke="#000000" cx="525" cy="-639.6" rx="78.1752" ry="18"/>
<text text-anchor="middle" x="525" y="-635.4" font-family="Times,serif" font-size="14.00" fill="#000000">movingToSource</text>
</g>
<!-- spawning&#45;&gt;movingToSource -->
<g id="edge1" class="edge">
<title>spawning-&gt;movingToSource</title>
<path fill="none" stroke="#000000" d="M525,-710.0006C525,-697.8949 525,-681.8076 525,-668.0674"/>
<polygon fill="#000000" stroke="#000000" points="528.5001,-667.672 525,-657.672 521.5001,-667.6721 528.5001,-667.672"/>
<text text-anchor="middle" x="552.9902" y="-679.8" font-family="Times,serif" font-size="14.00" fill="#000000"> spawned </text>
</g>
<!-- harvesting -->
<g id="node7" class="node">
<title>harvesting</title>
<ellipse fill="none" stroke="#000000" cx="455" cy="-550.8" rx="51.0242" ry="18"/>
<text text-anchor="middle" x="455" y="-546.6" font-family="Times,serif" font-size="14.00" fill="#000000">harvesting</text>
</g>
<!-- movingToSource&#45;&gt;harvesting -->
<g id="edge4" class="edge">
<title>movingToSource-&gt;harvesting</title>
<path fill="none" stroke="#000000" d="M479.9909,-624.7121C470.6636,-619.5083 461.9765,-612.6251 456.359,-603.6 451.9299,-596.4841 450.4904,-587.7184 450.4702,-579.3882"/>
<polygon fill="#000000" stroke="#000000" points="453.9747,-579.4197 451.0857,-569.2264 446.9875,-578.9965 453.9747,-579.4197"/>
<text text-anchor="middle" x="480.3205" y="-591" font-family="Times,serif" font-size="14.00" fill="#000000"> arrived </text>
</g>
<!-- movingToController -->
<g id="node3" class="node">
<title>movingToController</title>
<ellipse fill="none" stroke="#000000" cx="558" cy="-373.2" rx="90.9341" ry="18"/>
<text text-anchor="middle" x="558" y="-369" font-family="Times,serif" font-size="14.00" fill="#000000">movingToController</text>
</g>
<!-- upgrading -->
<g id="node4" class="node">
<title>upgrading</title>
<ellipse fill="none" stroke="#000000" cx="488" cy="-284.4" rx="50.3858" ry="18"/>
<text text-anchor="middle" x="488" y="-280.2" font-family="Times,serif" font-size="14.00" fill="#000000">upgrading</text>
</g>
<!-- movingToController&#45;&gt;upgrading -->
<g id="edge2" class="edge">
<title>movingToController-&gt;upgrading</title>
<path fill="none" stroke="#000000" d="M511.5793,-357.5086C502.7918,-352.4057 494.6921,-345.7681 489.359,-337.2 484.9299,-330.0841 483.4904,-321.3184 483.4702,-312.9882"/>
<polygon fill="#000000" stroke="#000000" points="486.9747,-313.0197 484.0857,-302.8264 479.9875,-312.5965 486.9747,-313.0197"/>
<text text-anchor="middle" x="513.3205" y="-324.6" font-family="Times,serif" font-size="14.00" fill="#000000"> arrived </text>
</g>
<!-- upgrading&#45;&gt;movingToController -->
<g id="edge14" class="edge">
<title>upgrading-&gt;movingToController</title>
<path fill="none" stroke="#000000" d="M514.1157,-300.1178C521.92,-305.7641 529.9885,-312.6709 536,-320.4 541.6967,-327.7243 546.1657,-336.7359 549.5443,-345.2274"/>
<polygon fill="#000000" stroke="#000000" points="546.3234,-346.6126 553.0178,-354.8245 552.9055,-344.2302 546.3234,-346.6126"/>
<text text-anchor="middle" x="581.9355" y="-324.6" font-family="Times,serif" font-size="14.00" fill="#000000"> not in range </text>
</g>
<!-- finding battery -->
<g id="node11" class="node">
<title>finding battery</title>
<ellipse fill="none" stroke="#000000" cx="374" cy="-195.6" rx="68.3189" ry="18"/>
<text text-anchor="middle" x="374" y="-191.4" font-family="Times,serif" font-size="14.00" fill="#000000">finding battery</text>
</g>
<!-- upgrading&#45;&gt;finding battery -->
<g id="edge13" class="edge">
<title>upgrading-&gt;finding battery</title>
<path fill="none" stroke="#000000" d="M466.8246,-267.9055C449.246,-254.2127 424.0228,-234.5651 404.3049,-219.2059"/>
<polygon fill="#000000" stroke="#000000" points="406.2697,-216.2999 396.2298,-212.9158 401.968,-221.8222 406.2697,-216.2999"/>
<text text-anchor="middle" x="462.9979" y="-235.8" font-family="Times,serif" font-size="14.00" fill="#000000"> empty </text>
</g>
<!-- movingToBattery -->
<g id="node5" class="node">
<title>movingToBattery</title>
<ellipse fill="none" stroke="#000000" cx="187" cy="-106.8" rx="79.8972" ry="18"/>
<text text-anchor="middle" x="187" y="-102.6" font-family="Times,serif" font-size="14.00" fill="#000000">movingToBattery</text>
</g>
<!-- withdrawing -->
<g id="node6" class="node">
<title>withdrawing</title>
<ellipse fill="none" stroke="#000000" cx="117" cy="-18" rx="59.6916" ry="18"/>
<text text-anchor="middle" x="117" y="-13.8" font-family="Times,serif" font-size="14.00" fill="#000000">withdrawing</text>
</g>
<!-- movingToBattery&#45;&gt;withdrawing -->
<g id="edge3" class="edge">
<title>movingToBattery-&gt;withdrawing</title>
<path fill="none" stroke="#000000" d="M141.9909,-91.9121C132.6636,-86.7083 123.9765,-79.8251 118.359,-70.8 113.9299,-63.6841 112.4904,-54.9184 112.4702,-46.5882"/>
<polygon fill="#000000" stroke="#000000" points="115.9747,-46.6197 113.0857,-36.4264 108.9875,-46.1965 115.9747,-46.6197"/>
<text text-anchor="middle" x="142.3205" y="-58.2" font-family="Times,serif" font-size="14.00" fill="#000000"> arrived </text>
</g>
<!-- withdrawing&#45;&gt;movingToBattery -->
<g id="edge8" class="edge">
<title>withdrawing-&gt;movingToBattery</title>
<path fill="none" stroke="#000000" d="M144.1132,-34.4455C151.603,-39.9534 159.2443,-46.5998 165,-54 170.6967,-61.3243 175.1657,-70.3359 178.5443,-78.8274"/>
<polygon fill="#000000" stroke="#000000" points="175.3234,-80.2126 182.0178,-88.4245 181.9055,-77.8302 175.3234,-80.2126"/>
<text text-anchor="middle" x="211.9355" y="-58.2" font-family="Times,serif" font-size="14.00" fill="#000000"> not in range </text>
</g>
<!-- findingTarget -->
<g id="node10" class="node">
<title>findingTarget</title>
<ellipse fill="none" stroke="#000000" cx="266" cy="-462" rx="64.2649" ry="18"/>
<text text-anchor="middle" x="266" y="-457.8" font-family="Times,serif" font-size="14.00" fill="#000000">findingTarget</text>
</g>
<!-- withdrawing&#45;&gt;findingTarget -->
<g id="edge7" class="edge">
<title>withdrawing-&gt;findingTarget</title>
<path fill="none" stroke="#000000" d="M74.7603,-30.8678C41.2471,-44.0015 0,-68.0394 0,-106.8 0,-373.2 0,-373.2 0,-373.2 0,-405.8261 22.1262,-410.8091 51,-426 75.5431,-438.9125 142.4478,-448.8391 195.1683,-454.9667"/>
<polygon fill="#000000" stroke="#000000" points="194.8384,-458.4516 205.1698,-456.1039 195.6293,-451.4964 194.8384,-458.4516"/>
<text text-anchor="middle" x="13.2209" y="-235.8" font-family="Times,serif" font-size="14.00" fill="#000000"> full </text>
</g>
<!-- harvesting&#45;&gt;movingToSource -->
<g id="edge16" class="edge">
<title>harvesting-&gt;movingToSource</title>
<path fill="none" stroke="#000000" d="M481.1157,-566.5178C488.92,-572.1641 496.9885,-579.0709 503,-586.8 508.6967,-594.1243 513.1657,-603.1359 516.5443,-611.6274"/>
<polygon fill="#000000" stroke="#000000" points="513.3234,-613.0126 520.0178,-621.2245 519.9055,-610.6302 513.3234,-613.0126"/>
<text text-anchor="middle" x="549.9355" y="-591" font-family="Times,serif" font-size="14.00" fill="#000000"> not in range </text>
</g>
<!-- harvesting&#45;&gt;findingTarget -->
<g id="edge15" class="edge">
<title>harvesting-&gt;findingTarget</title>
<path fill="none" stroke="#000000" d="M424.2132,-536.3351C392.6227,-521.4926 343.2514,-498.2959 308.0677,-481.7651"/>
<polygon fill="#000000" stroke="#000000" points="309.5373,-478.5886 298.9981,-477.5039 306.5605,-484.9241 309.5373,-478.5886"/>
<text text-anchor="middle" x="391.2209" y="-502.2" font-family="Times,serif" font-size="14.00" fill="#000000"> full </text>
</g>
<!-- movingToConstruction -->
<g id="node8" class="node">
<title>movingToConstruction</title>
<ellipse fill="none" stroke="#000000" cx="129" cy="-373.2" rx="101.3298" ry="18"/>
<text text-anchor="middle" x="129" y="-369" font-family="Times,serif" font-size="14.00" fill="#000000">movingToConstruction</text>
</g>
<!-- building -->
<g id="node9" class="node">
<title>building</title>
<ellipse fill="none" stroke="#000000" cx="266" cy="-284.4" rx="43.461" ry="18"/>
<text text-anchor="middle" x="266" y="-280.2" font-family="Times,serif" font-size="14.00" fill="#000000">building</text>
</g>
<!-- movingToConstruction&#45;&gt;building -->
<g id="edge5" class="edge">
<title>movingToConstruction-&gt;building</title>
<path fill="none" stroke="#000000" d="M113.4621,-355.1868C106.0003,-344.2783 100.2594,-330.5578 108.359,-320.4 121.4279,-304.0101 172.8979,-294.4914 213.5169,-289.4048"/>
<polygon fill="#000000" stroke="#000000" points="214.0645,-292.8644 223.58,-288.2056 213.2361,-285.9136 214.0645,-292.8644"/>
<text text-anchor="middle" x="132.3205" y="-324.6" font-family="Times,serif" font-size="14.00" fill="#000000"> arrived </text>
</g>
<!-- movingToConstruction&#45;&gt;findingTarget -->
<g id="edge6" class="edge">
<title>movingToConstruction-&gt;findingTarget</title>
<path fill="none" stroke="#000000" d="M150.3141,-390.8401C166.1697,-403.8183 186.5668,-420.1723 195.629,-426 204.2858,-431.567 213.9102,-436.9619 223.1923,-441.8079"/>
<polygon fill="#000000" stroke="#000000" points="221.813,-445.0333 232.3118,-446.4569 224.9923,-438.7969 221.813,-445.0333"/>
<text text-anchor="middle" x="224.1855" y="-413.4" font-family="Times,serif" font-size="14.00" fill="#000000"> no target </text>
</g>
<!-- building&#45;&gt;movingToConstruction -->
<g id="edge12" class="edge">
<title>building-&gt;movingToConstruction</title>
<path fill="none" stroke="#000000" d="M233.1658,-296.1704C212.2879,-303.9734 187.4845,-313.929 178.129,-320.4 167.3485,-327.8566 157.1693,-338.0443 148.9024,-347.4825"/>
<polygon fill="#000000" stroke="#000000" points="146.2026,-345.2548 142.4368,-355.1578 151.5563,-349.7647 146.2026,-345.2548"/>
<text text-anchor="middle" x="215.9355" y="-324.6" font-family="Times,serif" font-size="14.00" fill="#000000"> not in range </text>
</g>
<!-- building&#45;&gt;findingTarget -->
<g id="edge10" class="edge">
<title>building-&gt;findingTarget</title>
<path fill="none" stroke="#000000" d="M266,-302.4543C266,-333.4691 266,-397.0781 266,-433.922"/>
<polygon fill="#000000" stroke="#000000" points="262.5001,-433.9934 266,-443.9934 269.5001,-433.9934 262.5001,-433.9934"/>
<text text-anchor="middle" x="311.2984" y="-369" font-family="Times,serif" font-size="14.00" fill="#000000"> build complete </text>
</g>
<!-- building&#45;&gt;findingTarget -->
<g id="edge11" class="edge">
<title>building-&gt;findingTarget</title>
<path fill="none" stroke="#000000" d="M296.0848,-297.5152C318.5237,-309.1057 347.5287,-328.3594 361,-355.2 368.1772,-369.4999 368.1772,-376.9001 361,-391.2 350.038,-413.041 328.7903,-429.8583 309.1645,-441.6108"/>
<polygon fill="#000000" stroke="#000000" points="307.2636,-438.6654 300.3042,-446.654 310.7264,-444.749 307.2636,-438.6654"/>
<text text-anchor="middle" x="395.1855" y="-369" font-family="Times,serif" font-size="14.00" fill="#000000"> no target </text>
</g>
<!-- building&#45;&gt;finding battery -->
<g id="edge9" class="edge">
<title>building-&gt;finding battery</title>
<path fill="none" stroke="#000000" d="M285.558,-268.319C302.259,-254.587 326.5038,-234.6524 345.3867,-219.1265"/>
<polygon fill="#000000" stroke="#000000" points="347.6121,-221.8279 353.1135,-212.7733 343.1664,-216.4209 347.6121,-221.8279"/>
<text text-anchor="middle" x="350.9979" y="-235.8" font-family="Times,serif" font-size="14.00" fill="#000000"> empty </text>
</g>
<!-- findingTarget&#45;&gt;movingToController -->
<g id="edge18" class="edge">
<title>findingTarget-&gt;movingToController</title>
<path fill="none" stroke="#000000" d="M315.5549,-450.4575C342.7159,-443.8533 376.8879,-435.0902 407,-426 440.2022,-415.977 476.9445,-403.168 505.8719,-392.6763"/>
<polygon fill="#000000" stroke="#000000" points="507.1701,-395.9284 515.366,-389.2145 504.772,-389.352 507.1701,-395.9284"/>
<text text-anchor="middle" x="506.7914" y="-413.4" font-family="Times,serif" font-size="14.00" fill="#000000"> found controller </text>
</g>
<!-- findingTarget&#45;&gt;movingToConstruction -->
<g id="edge17" class="edge">
<title>findingTarget-&gt;movingToConstruction</title>
<path fill="none" stroke="#000000" d="M202.3627,-459.6793C148.3407,-456.2117 76.7762,-447.5641 58.6332,-426 48.3456,-413.7725 58.2202,-402.7205 73.495,-393.9254"/>
<polygon fill="#000000" stroke="#000000" points="75.1815,-396.9934 82.4429,-389.2783 71.9552,-390.7813 75.1815,-396.9934"/>
<text text-anchor="middle" x="115.1834" y="-413.4" font-family="Times,serif" font-size="14.00" fill="#000000"> found construction </text>
</g>
<!-- finding battery&#45;&gt;movingToSource -->
<g id="edge20" class="edge">
<title>finding battery-&gt;movingToSource</title>
<path fill="none" stroke="#000000" d="M438.6295,-201.4288C527.6172,-211.2723 677,-235.1335 677,-284.4 677,-550.8 677,-550.8 677,-550.8 677,-591.2304 636.4107,-613.5884 597.1815,-625.7556"/>
<polygon fill="#000000" stroke="#000000" points="595.891,-622.4856 587.2628,-628.6341 597.8421,-629.2082 595.891,-622.4856"/>
<text text-anchor="middle" x="718.0165" y="-413.4" font-family="Times,serif" font-size="14.00" fill="#000000"> found Source </text>
</g>
<!-- finding battery&#45;&gt;movingToBattery -->
<g id="edge19" class="edge">
<title>finding battery-&gt;movingToBattery</title>
<path fill="none" stroke="#000000" d="M340.5681,-179.7243C309.8397,-165.1325 264.1007,-143.4125 230.5308,-127.4713"/>
<polygon fill="#000000" stroke="#000000" points="231.9422,-124.267 221.4076,-123.139 228.9395,-130.5903 231.9422,-124.267"/>
<text text-anchor="middle" x="339.0158" y="-147" font-family="Times,serif" font-size="14.00" fill="#000000"> found battery </text>
</g>
</g>
</svg>